<svg width="17" height="13" viewBox="0 0 17 13" fill="none" xmlns="http://www.w3.org/2000/svg">
<path d="M1.59375 0.25H15.4062C16.2695 0.25 17 0.980469 17 1.84375C17 2.375 16.7344 2.83984 16.3359 3.13867L9.13086 8.55078C8.73242 8.84961 8.23438 8.84961 7.83594 8.55078L0.630859 3.13867C0.232422 2.83984 0 2.375 0 1.84375C0 0.980469 0.697266 0.25 1.59375 0.25ZM0 3.96875L7.20508 9.41406C7.96875 9.97852 8.99805 9.97852 9.76172 9.41406L17 3.96875V10.875C17 12.0703 16.0371 13 14.875 13H2.125C0.929688 13 0 12.0703 0 10.875V3.96875Z" fill="white"/>
</svg>
