<svg width="31" height="32" viewBox="0 0 31 32" fill="none" xmlns="http://www.w3.org/2000/svg">
<path d="M4.375 0.5625H26.25C28.6426 0.5625 30.625 2.54492 30.625 4.9375V26.8125C30.625 29.2734 28.6426 31.1875 26.25 31.1875H17.4316V21.2754H22.1484L23.1055 15.875H17.4316V14.0293C17.4316 11.1582 18.5254 10.0645 21.3965 10.0645C22.2852 10.0645 22.9688 10.1328 23.3789 10.1328V5.34766C22.627 5.07422 20.7129 4.86914 19.6191 4.86914C13.7402 4.86914 11.0742 7.67188 11.0742 13.6191V15.875H7.45117V21.2754H11.0742V31.1875H4.375C1.91406 31.1875 0 29.2734 0 26.8125V4.9375C0 2.54492 1.91406 0.5625 4.375 0.5625Z" fill="#657252"/>
</svg>
