<svg width="22" height="23" viewBox="0 0 22 23" fill="none" xmlns="http://www.w3.org/2000/svg">
<path d="M3.125 0.6875H18.75C20.459 0.6875 21.875 2.10352 21.875 3.8125V19.4375C21.875 21.1953 20.459 22.5625 18.75 22.5625H12.4512V15.4824H15.8203L16.5039 11.625H12.4512V10.3066C12.4512 8.25586 13.2324 7.47461 15.2832 7.47461C15.918 7.47461 16.4062 7.52344 16.6992 7.52344V4.10547C16.1621 3.91016 14.7949 3.76367 14.0137 3.76367C9.81445 3.76367 7.91016 5.76562 7.91016 10.0137V11.625H5.32227V15.4824H7.91016V22.5625H3.125C1.36719 22.5625 0 21.1953 0 19.4375V3.8125C0 2.10352 1.36719 0.6875 3.125 0.6875Z" fill="#5C4033"/>
</svg>
