<svg width="22" height="23" viewBox="0 0 22 23" fill="none" xmlns="http://www.w3.org/2000/svg">
<path d="M9.47266 9.47656C10.2539 8.98828 11.2305 8.89062 12.0605 9.33008C12.8906 9.7207 13.4766 10.5508 13.5254 11.4785C13.5742 12.4062 13.1348 13.2852 12.3535 13.8223C11.5723 14.3105 10.5957 14.4082 9.76562 13.9688C8.93555 13.5781 8.39844 12.748 8.30078 11.8203C8.25195 10.8926 8.69141 10.0137 9.47266 9.47656ZM16.4062 6.15625C16.6504 6.40039 16.8945 6.69336 16.9922 7.03516C17.334 7.91406 17.334 9.81836 17.334 11.0879C17.334 11.2832 17.334 11.4785 17.334 11.625C17.334 11.8203 17.334 12.0156 17.334 12.2109C17.334 13.4316 17.334 15.3848 16.9922 16.2637C16.8945 16.6055 16.6992 16.8984 16.4062 17.1426C16.1621 17.3867 15.8691 17.582 15.5273 17.7285C14.6484 18.0703 12.6953 18.0703 11.4746 18.0703C11.2793 18.0703 11.084 18.0703 10.9375 18.0703C10.7422 18.0703 10.5469 18.0703 10.3516 18.0703C9.13086 18.0703 7.17773 18.0703 6.29883 17.7285C5.95703 17.582 5.66406 17.3867 5.41992 17.1426C5.17578 16.8984 4.98047 16.6055 4.83398 16.2637C4.49219 15.3848 4.49219 13.4316 4.49219 12.2109C4.49219 11.9668 4.49219 11.8203 4.49219 11.625C4.49219 11.4785 4.49219 11.2832 4.49219 11.0879C4.49219 9.86719 4.49219 7.91406 4.83398 7.03516C4.98047 6.69336 5.17578 6.40039 5.41992 6.15625C5.66406 5.91211 5.95703 5.66797 6.29883 5.57031C7.17773 5.22852 9.13086 5.22852 10.3516 5.22852C10.5469 5.22852 10.7422 5.22852 10.9375 5.22852C11.084 5.22852 11.2793 5.22852 11.4746 5.22852C12.6953 5.22852 14.6484 5.22852 15.5273 5.57031C15.8691 5.66797 16.1621 5.91211 16.4062 6.15625ZM13.1348 8.30469C11.9629 7.52344 10.4004 7.42578 9.13086 8.06055C7.86133 8.69531 7.03125 9.96484 6.93359 11.3809C6.83594 12.7969 7.51953 14.1641 8.69141 14.9941C9.86328 15.7754 11.377 15.873 12.6953 15.2383C13.9648 14.6035 14.7949 13.334 14.8926 11.918C14.9902 10.502 14.3066 9.13477 13.1348 8.30469ZM14.5508 8.25586C14.7461 8.35352 14.8926 8.40234 15.0879 8.40234C15.2344 8.40234 15.332 8.40234 15.4297 8.35352C15.5762 8.30469 15.6738 8.20703 15.7715 8.10938C15.8203 8.06055 15.918 7.96289 15.9668 7.81641C16.0156 7.71875 16.0156 7.57227 16.0156 7.47461C16.0156 7.2793 15.9668 7.08398 15.8691 6.9375C15.7715 6.79102 15.625 6.69336 15.4297 6.5957C15.2832 6.54688 15.0879 6.54688 14.8926 6.54688C14.6973 6.5957 14.5508 6.69336 14.4043 6.79102C14.3066 6.9375 14.209 7.08398 14.1602 7.2793C14.1113 7.47461 14.1602 7.66992 14.209 7.81641C14.3066 8.01172 14.4043 8.1582 14.5508 8.25586ZM21.875 3.8125V19.4375C21.875 21.1953 20.459 22.5625 18.75 22.5625H3.125C1.36719 22.5625 0 21.1953 0 19.4375V3.8125C0 2.10352 1.36719 0.6875 3.125 0.6875H18.75C20.459 0.6875 21.875 2.10352 21.875 3.8125ZM17.4316 18.1191C18.3105 17.2402 18.6035 16.1172 18.6523 14.8477C18.75 13.5781 18.75 9.7207 18.6523 8.40234C18.6035 7.18164 18.3105 6.05859 17.4316 5.13086C16.5039 4.25195 15.3809 3.95898 14.1602 3.91016C12.8418 3.8125 8.98438 3.8125 7.71484 3.91016C6.44531 3.95898 5.32227 4.25195 4.44336 5.13086C3.51562 6.05859 3.22266 7.18164 3.17383 8.40234C3.07617 9.7207 3.07617 13.5781 3.17383 14.8477C3.22266 16.1172 3.51562 17.2402 4.44336 18.1191C5.32227 19.0469 6.44531 19.3398 7.71484 19.3887C8.98438 19.4863 12.8418 19.4863 14.1602 19.3887C15.3809 19.3398 16.5039 19.0469 17.4316 18.1191Z" fill="#5C4033"/>
</svg>
