<svg width="31" height="32" viewBox="0 0 31 32" fill="none" xmlns="http://www.w3.org/2000/svg">
<path d="M13.2617 12.8672C14.3555 12.1836 15.7227 12.0469 16.8848 12.6621C18.0469 13.209 18.8672 14.3711 18.9355 15.6699C19.0039 16.9688 18.3887 18.1992 17.2949 18.9512C16.2012 19.6348 14.834 19.7715 13.6719 19.1562C12.5098 18.6094 11.7578 17.4473 11.6211 16.1484C11.5527 14.8496 12.168 13.6191 13.2617 12.8672ZM22.9688 8.21875C23.3105 8.56055 23.6523 8.9707 23.7891 9.44922C24.2676 10.6797 24.2676 13.3457 24.2676 15.123C24.2676 15.3965 24.2676 15.6699 24.2676 15.875C24.2676 16.1484 24.2676 16.4219 24.2676 16.6953C24.2676 18.4043 24.2676 21.1387 23.7891 22.3691C23.6523 22.8477 23.3789 23.2578 22.9688 23.5996C22.627 23.9414 22.2168 24.2148 21.7383 24.4199C20.5078 24.8984 17.7734 24.8984 16.0645 24.8984C15.791 24.8984 15.5176 24.8984 15.3125 24.8984C15.0391 24.8984 14.7656 24.8984 14.4922 24.8984C12.7832 24.8984 10.0488 24.8984 8.81836 24.4199C8.33984 24.2148 7.92969 23.9414 7.58789 23.5996C7.24609 23.2578 6.97266 22.8477 6.76758 22.3691C6.28906 21.1387 6.28906 18.4043 6.28906 16.6953C6.28906 16.3535 6.28906 16.1484 6.28906 15.875C6.28906 15.6699 6.28906 15.3965 6.28906 15.123C6.28906 13.4141 6.28906 10.6797 6.76758 9.44922C6.97266 8.9707 7.24609 8.56055 7.58789 8.21875C7.92969 7.87695 8.33984 7.53516 8.81836 7.39844C10.0488 6.91992 12.7832 6.91992 14.4922 6.91992C14.7656 6.91992 15.0391 6.91992 15.3125 6.91992C15.5176 6.91992 15.791 6.91992 16.0645 6.91992C17.7734 6.91992 20.5078 6.91992 21.7383 7.39844C22.2168 7.53516 22.627 7.87695 22.9688 8.21875ZM18.3887 11.2266C16.748 10.1328 14.5605 9.99609 12.7832 10.8848C11.0059 11.7734 9.84375 13.5508 9.70703 15.5332C9.57031 17.5156 10.5273 19.4297 12.168 20.5918C13.8086 21.6855 15.9277 21.8223 17.7734 20.9336C19.5508 20.0449 20.7129 18.2676 20.8496 16.2852C20.9863 14.3027 20.0293 12.3887 18.3887 11.2266ZM20.3711 11.1582C20.6445 11.2949 20.8496 11.3633 21.123 11.3633C21.3281 11.3633 21.4648 11.3633 21.6016 11.2949C21.8066 11.2266 21.9434 11.0898 22.0801 10.9531C22.1484 10.8848 22.2852 10.748 22.3535 10.543C22.4219 10.4062 22.4219 10.2012 22.4219 10.0645C22.4219 9.79102 22.3535 9.51758 22.2168 9.3125C22.0801 9.10742 21.875 8.9707 21.6016 8.83398C21.3965 8.76562 21.123 8.76562 20.8496 8.76562C20.5762 8.83398 20.3711 8.9707 20.166 9.10742C20.0293 9.3125 19.8926 9.51758 19.8242 9.79102C19.7559 10.0645 19.8242 10.3379 19.8926 10.543C20.0293 10.8164 20.166 11.0215 20.3711 11.1582ZM30.625 4.9375V26.8125C30.625 29.2734 28.6426 31.1875 26.25 31.1875H4.375C1.91406 31.1875 0 29.2734 0 26.8125V4.9375C0 2.54492 1.91406 0.5625 4.375 0.5625H26.25C28.6426 0.5625 30.625 2.54492 30.625 4.9375ZM24.4043 24.9668C25.6348 23.7363 26.0449 22.1641 26.1133 20.3867C26.25 18.6094 26.25 13.209 26.1133 11.3633C26.0449 9.6543 25.6348 8.08203 24.4043 6.7832C23.1055 5.55273 21.5332 5.14258 19.8242 5.07422C17.9785 4.9375 12.5781 4.9375 10.8008 5.07422C9.02344 5.14258 7.45117 5.55273 6.2207 6.7832C4.92188 8.08203 4.51172 9.6543 4.44336 11.3633C4.30664 13.209 4.30664 18.6094 4.44336 20.3867C4.51172 22.1641 4.92188 23.7363 6.2207 24.9668C7.45117 26.2656 9.02344 26.6758 10.8008 26.7441C12.5781 26.8809 17.9785 26.8809 19.8242 26.7441C21.5332 26.6758 23.1055 26.2656 24.4043 24.9668Z" fill="#657252"/>
</svg>
