<svg width="15" height="21" viewBox="0 0 15 21" fill="none" xmlns="http://www.w3.org/2000/svg">
<path d="M8.39844 20.0312C7.92969 20.6172 7.03125 20.6172 6.5625 20.0312C4.57031 17.4922 0 11.4375 0 8C0 3.85938 3.35938 0.5 7.5 0.5C11.6406 0.5 15 3.85938 15 8C15 11.4375 10.4297 17.4922 8.39844 20.0312ZM7.5 5.5C6.60156 5.5 5.78125 6.00781 5.3125 6.75C4.88281 7.53125 4.88281 8.50781 5.3125 9.25C5.78125 10.0312 6.60156 10.5 7.5 10.5C8.35938 10.5 9.17969 10.0312 9.64844 9.25C10.0781 8.50781 10.0781 7.53125 9.64844 6.75C9.17969 6.00781 8.35938 5.5 7.5 5.5Z" fill="white"/>
</svg>
