<svg width="30" height="30" viewBox="0 0 30 30" fill="none" xmlns="http://www.w3.org/2000/svg">
<path d="M21.5 12.7681L15.5 16.5187L9.5 12.7681V11.2678L15.5 15.0184L21.5 11.2678M21.5 9.76758H9.5C8.6675 9.76758 8 10.4352 8 11.2678V20.2693C8 20.6671 8.15804 21.0487 8.43934 21.3301C8.72064 21.6114 9.10218 21.7695 9.5 21.7695H21.5C21.8978 21.7695 22.2794 21.6114 22.5607 21.3301C22.842 21.0487 23 20.6671 23 20.2693V11.2678C23 10.8699 22.842 10.4883 22.5607 10.207C22.2794 9.92564 21.8978 9.76758 21.5 9.76758Z" fill="#657252"/>
<circle cx="15" cy="15" r="14.5" stroke="#657252"/>
</svg>
