<svg width="58" height="58" viewBox="0 0 58 58" fill="none" xmlns="http://www.w3.org/2000/svg">
<path d="M46.717 36.7031C46.7698 35.9455 46.9253 35.1986 47.1792 34.4828C47.6903 33.2818 47.8138 31.9512 47.5327 30.6766C46.9903 29.4556 46.0895 28.4284 44.9499 27.7313C44.3449 27.3284 43.8016 26.84 43.3367 26.2812C42.9393 25.6578 42.6341 24.9801 42.4305 24.2694C42.1279 22.9799 41.4348 21.8153 40.4458 20.9344C39.3094 20.262 37.9914 19.9611 36.6758 20.0734C36.1365 20.0744 35.5977 20.0411 35.0627 19.9738L41.2433 16.1675C41.376 16.0889 41.4864 15.9777 41.5641 15.8445C41.6418 15.7113 41.6842 15.5604 41.6874 15.4062V2.71875C41.6874 2.4784 41.5919 2.24789 41.4219 2.07793C41.252 1.90798 41.0215 1.8125 40.7811 1.8125H17.2186C16.9783 1.8125 16.7478 1.90798 16.5778 2.07793C16.4078 2.24789 16.3124 2.4784 16.3124 2.71875V15.4062C16.313 15.5611 16.3533 15.7132 16.4295 15.8481C16.5056 15.9829 16.6151 16.096 16.7474 16.1766L22.928 19.9828C22.3929 20.0502 21.8541 20.0835 21.3149 20.0825C19.9992 19.9701 18.6813 20.2711 17.5449 20.9434C16.5538 21.8264 15.8604 22.9946 15.5602 24.2875C15.3548 24.9948 15.0497 25.6692 14.6539 26.2903C14.1912 26.8452 13.651 27.3305 13.0499 27.7313C11.9102 28.4284 11.0095 29.4556 10.4671 30.6766C10.1859 31.9512 10.3094 33.2818 10.8205 34.4828C11.0744 35.1986 11.2299 35.9455 11.2827 36.7031C11.234 37.4761 11.0785 38.2385 10.8205 38.9688C10.3094 40.1698 10.1859 41.5004 10.4671 42.775C11.0171 43.9792 11.9171 44.9898 13.0499 45.675C13.6548 46.0779 14.1982 46.5663 14.663 47.125C15.0604 47.7485 15.3656 48.4261 15.5692 49.1369C15.8718 50.4263 16.5649 51.591 17.5539 52.4719C18.6852 53.16 20.0035 53.4769 21.3239 53.3781C22.0749 53.3314 22.8287 53.3925 23.5624 53.5594C24.2134 53.8296 24.8235 54.1895 25.3749 54.6287C26.3965 55.505 27.6611 56.0488 28.9999 56.1875C30.3386 56.0488 31.6032 55.505 32.6249 54.6287C33.1762 54.1895 33.7863 53.8296 34.4374 53.5594C35.1596 53.3768 35.9041 53.2974 36.6486 53.3237C37.9685 53.4153 39.2846 53.0989 40.4186 52.4175C41.4076 51.5366 42.1007 50.3719 42.4033 49.0825C42.6069 48.3717 42.9121 47.6941 43.3096 47.0706C43.7865 46.5291 44.339 46.0591 44.9499 45.675C46.0895 44.9778 46.9903 43.9506 47.5327 42.7297C47.8138 41.4551 47.6903 40.1245 47.1792 38.9234C46.9253 38.2077 46.7698 37.4607 46.717 36.7031ZM22.6561 17.69V3.625H35.3436V17.69L33.078 19.0856L32.6249 18.7775C31.6032 17.9013 30.3386 17.3575 28.9999 17.2188C27.6611 17.3575 26.3965 17.9013 25.3749 18.7775L24.9399 19.0856L22.6561 17.69ZM28.9999 48.9375C26.5801 48.9375 24.2147 48.22 22.2028 46.8756C20.1909 45.5313 18.6228 43.6206 17.6968 41.385C16.7708 39.1495 16.5285 36.6896 17.0006 34.3163C17.4726 31.9431 18.6378 29.7631 20.3489 28.0521C22.0599 26.3411 24.2398 25.1759 26.6131 24.7038C28.9863 24.2318 31.4462 24.474 33.6818 25.4C35.9173 26.326 37.828 27.8941 39.1724 29.9061C40.5167 31.918 41.2342 34.2834 41.2342 36.7031C41.2294 39.9464 39.9389 43.0555 37.6456 45.3488C35.3522 47.6422 32.2431 48.9327 28.9999 48.9375Z" fill="white"/>
<path d="M34.8541 38.5065C34.8051 38.556 34.7682 38.616 34.7462 38.682C34.7242 38.748 34.7177 38.8182 34.7272 38.8871L35.0534 41.6059C35.1054 42.0068 35.0486 42.4142 34.8892 42.7857C34.7298 43.1571 34.4735 43.4789 34.1472 43.7174C33.8123 43.965 33.4175 44.1189 33.0034 44.1635C32.5894 44.2081 32.1709 44.1417 31.7909 43.9712L29.2444 42.8203C29.173 42.7888 29.0958 42.7726 29.0178 42.7726C28.9398 42.7726 28.8626 42.7888 28.7913 42.8203L26.2447 43.9712C25.8647 44.1417 25.4463 44.2081 25.0322 44.1635C24.6181 44.1189 24.2234 43.965 23.8884 43.7174C23.5621 43.4789 23.3058 43.1571 23.1464 42.7857C22.987 42.4142 22.9303 42.0068 22.9822 41.6059L23.3084 38.8871C23.3179 38.8182 23.3114 38.748 23.2894 38.682C23.2674 38.616 23.2305 38.556 23.1816 38.5065L21.2784 36.4856C20.9966 36.1912 20.7997 35.8259 20.7088 35.4286C20.6178 35.0313 20.6362 34.6167 20.7619 34.229C20.8944 33.8285 21.1329 33.4712 21.452 33.1952C21.7711 32.9192 22.1589 32.7347 22.5744 32.6612L25.2931 32.1265C25.366 32.1129 25.4351 32.0841 25.496 32.042C25.5569 31.9998 25.6082 31.9452 25.6466 31.8818L27.015 29.4893C27.2214 29.1338 27.5175 28.8387 27.8738 28.6335C28.23 28.4284 28.6339 28.3204 29.045 28.3204C29.4561 28.3204 29.86 28.4284 30.2162 28.6335C30.5725 28.8387 30.8686 29.1338 31.075 29.4893L32.4434 31.8818C32.4818 31.9452 32.5331 31.9998 32.594 32.042C32.6549 32.0841 32.7241 32.1129 32.7969 32.1265L35.5156 32.6612C35.9311 32.7347 36.3189 32.9192 36.638 33.1952C36.9571 33.4712 37.1956 33.8285 37.3281 34.229C37.4539 34.6167 37.4722 35.0313 37.3813 35.4286C37.2903 35.8259 37.0934 36.1912 36.8116 36.4856L34.8541 38.5065Z" fill="white"/>
</svg>
