<svg width="30" height="30" viewBox="0 0 30 30" fill="none" xmlns="http://www.w3.org/2000/svg">
<path d="M22.0597 22.0024C14.0619 22.0136 7.99157 15.8702 8.00001 7.94046C8.00001 7.42194 8.42001 7 8.93751 7H11.4125C11.8766 7 12.2713 7.3413 12.3397 7.80075C12.5029 8.90254 12.8234 9.9752 13.2913 10.9859L13.3878 11.1941C13.4527 11.3342 13.4666 11.4925 13.4273 11.6418C13.3879 11.791 13.2977 11.9219 13.1722 12.0117C12.4053 12.5593 12.1128 13.6611 12.71 14.5199C13.4619 15.6014 14.4003 16.5402 15.4813 17.2926C16.3409 17.8889 17.4425 17.5964 17.9891 16.8303C18.0788 16.7044 18.2097 16.6139 18.3592 16.5743C18.5087 16.5347 18.6672 16.5487 18.8075 16.6137L19.0147 16.7094C20.0253 17.1782 21.0978 17.4989 22.1994 17.662C22.6588 17.7305 23 18.1252 23 18.5903V21.0647C23 21.188 22.9757 21.31 22.9285 21.4238C22.8814 21.5376 22.8122 21.641 22.7251 21.7281C22.6379 21.8152 22.5345 21.8842 22.4206 21.9313C22.3068 21.9783 22.1848 22.0025 22.0616 22.0024H22.0597Z" fill="#657252"/>
<circle cx="15" cy="15" r="14.5" stroke="#657252"/>
</svg>
