<svg width="27" height="26" viewBox="0 0 27 26" fill="none" xmlns="http://www.w3.org/2000/svg">
<path d="M14.8672 1.00391L18.041 7.49805L25.0234 8.52344C25.6094 8.62109 26.0977 9.01172 26.293 9.59766C26.4883 10.1348 26.3418 10.7695 25.9023 11.1602L20.8242 16.1895L22.0449 23.3184C22.1426 23.9043 21.8984 24.4902 21.4102 24.832C20.9219 25.2227 20.2871 25.2227 19.75 24.9785L13.5 21.6094L7.20117 24.9785C6.71289 25.2227 6.07812 25.2227 5.58984 24.832C5.10156 24.4902 4.85742 23.9043 4.95508 23.3184L6.12695 16.1895L1.04883 11.1602C0.658203 10.7695 0.511719 10.1348 0.658203 9.59766C0.853516 9.01172 1.3418 8.62109 1.92773 8.52344L8.95898 7.49805L12.084 1.00391C12.3281 0.466797 12.8652 0.125 13.5 0.125C14.0859 0.125 14.623 0.466797 14.8672 1.00391Z" fill="#657252"/>
</svg>
