<svg width="57" height="53" viewBox="0 0 57 53" fill="none" xmlns="http://www.w3.org/2000/svg">
<path d="M36.7373 19.6177C36.4274 19.3682 36.0236 19.2433 35.6146 19.2705C35.2057 19.2978 34.8251 19.4749 34.5566 19.763L28.4556 26.3117L27.182 24.9292C27.0501 24.785 26.8889 24.6664 26.7076 24.5802C26.5264 24.4941 26.3286 24.4421 26.1256 24.4271C25.9227 24.4122 25.7186 24.4347 25.525 24.4933C25.3314 24.5519 25.1522 24.6455 24.9976 24.7686C24.843 24.8918 24.716 25.0421 24.6241 25.211C24.5321 25.3799 24.4769 25.564 24.4616 25.7528C24.4464 25.9415 24.4713 26.1312 24.5351 26.311C24.5989 26.4908 24.7002 26.6571 24.8332 26.8004L27.2746 29.4498C27.4194 29.6068 27.5988 29.7329 27.8007 29.8195C28.0026 29.9062 28.2222 29.9514 28.4446 29.952H28.449C28.6707 29.9519 28.8897 29.9075 29.0913 29.8218C29.2929 29.7361 29.4723 29.611 29.6173 29.4551L36.8937 21.6449C37.0266 21.5023 37.128 21.3367 37.1921 21.1576C37.2561 20.9785 37.2816 20.7895 37.2671 20.6012C37.2526 20.413 37.1983 20.2292 37.1074 20.0605C37.0165 19.8917 36.8908 19.7413 36.7373 19.6177Z" fill="white"/>
<path d="M50.2531 15.1613C50.219 14.205 49.8284 13.2894 49.1482 12.5713C48.468 11.8533 47.5405 11.3775 46.5245 11.2253C40.4536 10.2112 34.6846 5.25941 31.7883 2.40064C31.3703 1.98689 30.8669 1.65574 30.3082 1.42701C29.7494 1.19829 29.1468 1.07667 28.5363 1.06943L28.5305 1.07067L28.5241 1.06943C27.9017 1.06552 27.2852 1.18156 26.7134 1.41025C26.1417 1.63895 25.6271 1.97532 25.2021 2.39816C22.3032 5.25941 16.5342 10.2112 10.4633 11.2253C9.44785 11.3828 8.52236 11.8624 7.84413 12.5826C7.1659 13.3028 6.77679 14.2191 6.74292 15.1759C6.6648 19.3284 7.03309 23.4778 7.84231 27.5622L7.8432 27.5642C10.3606 39.9088 16.9949 48.1752 27.0325 51.4711C27.5119 51.627 28.0163 51.7063 28.5241 51.7056C29.0196 51.7062 29.5113 51.6255 29.9766 51.467C40.0109 48.0858 46.6515 39.8199 49.1803 27.563V27.5616C50.0014 23.4742 50.361 19.3182 50.2531 15.1613ZM17.33 26.235H10.0284C9.37542 22.5934 9.08029 18.904 9.14672 15.2126C9.1662 14.7726 9.35115 14.3528 9.66933 14.0264C9.98751 13.7001 10.4188 13.488 10.8879 13.427C17.6383 12.2985 23.8501 6.99334 26.9542 3.92911C27.0644 3.81944 27.1879 3.72201 27.3222 3.63877V16.1418C24.6255 16.4159 22.127 17.5896 20.2898 19.4455C18.4525 21.3013 17.401 23.7135 17.33 26.235ZM28.5216 34.0205C27.3183 34.0221 26.1298 33.7739 25.0427 33.2943C23.9556 32.8146 22.9973 32.1155 22.2377 31.2478C21.478 30.3801 20.9361 29.3658 20.6514 28.2788C20.3667 27.1917 20.3465 26.0592 20.5921 24.964C20.8378 23.8687 21.3431 22.8382 22.0714 21.9475C22.7996 21.0569 23.7324 20.3285 24.8017 19.8155C25.8711 19.3025 27.05 19.0178 28.2527 18.9821C29.4553 18.9465 30.6514 19.1607 31.7537 19.6093L32.8735 18.4073C33.2277 18.0271 33.6657 17.7221 34.1578 17.5132C34.65 17.3043 35.1847 17.1963 35.7256 17.1965C36.4487 17.1967 37.1564 17.3901 37.7646 17.7537C38.3727 18.1173 38.8557 18.6357 39.156 19.2473C39.4563 19.8588 39.5612 20.5377 39.4583 21.2032C39.3555 21.8686 39.0491 22.4925 38.5756 23.0007L36.4871 25.2423C36.692 26.3214 36.6394 27.4291 36.333 28.4872C36.0265 29.5452 35.4738 30.5277 34.7138 31.3652C33.9538 32.2026 33.0052 32.8745 31.935 33.3334C30.8649 33.7922 29.7 34.0268 28.5216 34.0205ZM29.7261 49.1658V36.8565C32.1073 36.6132 34.3424 35.6681 36.1045 34.1592C37.8667 32.6504 39.0636 30.6569 39.5202 28.4704H46.5236C44.7023 36.0933 40.2962 45.3329 29.7261 49.1658Z" fill="white"/>
</svg>
