<svg width="31" height="32" viewBox="0 0 31 32" fill="none" xmlns="http://www.w3.org/2000/svg">
<path d="M4.375 0.5625H26.25C28.6426 0.5625 30.625 2.54492 30.625 4.9375V26.8125C30.625 29.2734 28.6426 31.1875 26.25 31.1875H4.375C1.91406 31.1875 0 29.2734 0 26.8125V4.9375C0 2.54492 1.91406 0.5625 4.375 0.5625ZM23.9941 12.0469C23.9941 11.8418 23.9941 11.6367 23.9941 11.4316C24.8145 10.8164 25.6348 9.99609 26.25 9.10742C25.4297 9.44922 24.541 9.72266 23.6523 9.79102C24.541 9.24414 25.293 8.42383 25.6348 7.33008C24.7461 7.87695 23.7891 8.21875 22.7637 8.42383C21.9434 7.53516 20.7812 6.98828 19.4824 6.98828C16.748 6.98828 14.4922 9.51758 15.1074 12.5254C11.416 12.3203 8.06641 10.543 5.87891 7.80859C5.46875 8.49219 5.26367 9.24414 5.26367 10.1328C5.26367 10.8164 5.46875 11.5684 5.81055 12.252C6.15234 12.8672 6.63086 13.4141 7.24609 13.8242C6.49414 13.8242 5.81055 13.6191 5.26367 13.2773V13.3457C5.26367 15.5332 6.76758 17.3105 8.81836 17.7207C8.13477 17.9258 7.51953 17.9258 6.76758 17.7891C7.38281 19.5664 9.02344 20.8652 11.0059 20.9336C9.43359 22.0957 7.51953 22.8477 5.40039 22.8477C5.05859 22.8477 4.7168 22.8477 4.375 22.7793C6.35742 24.0781 8.68164 24.7617 11.2109 24.7617C19.4824 24.7617 23.9941 17.9258 23.9941 12.0469Z" fill="#657252"/>
</svg>
