<svg width="22" height="23" viewBox="0 0 22 23" fill="none" xmlns="http://www.w3.org/2000/svg">
<path d="M3.125 0.6875H18.75C20.459 0.6875 21.875 2.10352 21.875 3.8125V19.4375C21.875 21.1953 20.459 22.5625 18.75 22.5625H3.125C1.36719 22.5625 0 21.1953 0 19.4375V3.8125C0 2.10352 1.36719 0.6875 3.125 0.6875ZM17.1387 8.89062C17.1387 8.74414 17.1387 8.59766 17.1387 8.45117C17.7246 8.01172 18.3105 7.42578 18.75 6.79102C18.1641 7.03516 17.5293 7.23047 16.8945 7.2793C17.5293 6.88867 18.0664 6.30273 18.3105 5.52148C17.6758 5.91211 16.9922 6.15625 16.2598 6.30273C15.6738 5.66797 14.8438 5.27734 13.916 5.27734C11.9629 5.27734 10.3516 7.08398 10.791 9.23242C8.1543 9.08594 5.76172 7.81641 4.19922 5.86328C3.90625 6.35156 3.75977 6.88867 3.75977 7.52344C3.75977 8.01172 3.90625 8.54883 4.15039 9.03711C4.39453 9.47656 4.73633 9.86719 5.17578 10.1602C4.63867 10.1602 4.15039 10.0137 3.75977 9.76953V9.81836C3.75977 11.3809 4.83398 12.6504 6.29883 12.9434C5.81055 13.0898 5.37109 13.0898 4.83398 12.9922C5.27344 14.2617 6.44531 15.1895 7.86133 15.2383C6.73828 16.0684 5.37109 16.6055 3.85742 16.6055C3.61328 16.6055 3.36914 16.6055 3.125 16.5566C4.54102 17.4844 6.20117 17.9727 8.00781 17.9727C13.916 17.9727 17.1387 13.0898 17.1387 8.89062Z" fill="#5C4033"/>
</svg>
