<svg width="22" height="23" viewBox="0 0 22 23" fill="none" xmlns="http://www.w3.org/2000/svg">
<path d="M13.7695 11.6738L9.08203 14.3105V9.03711L13.7695 11.6738ZM18.75 0.6875C20.459 0.6875 21.875 2.10352 21.875 3.8125V19.4375C21.875 21.1953 20.459 22.5625 18.75 22.5625H3.125C1.36719 22.5625 0 21.1953 0 19.4375V3.8125C0 2.10352 1.36719 0.6875 3.125 0.6875H18.75ZM19.4336 7.37695C19.2383 6.5957 18.6035 5.96094 17.8711 5.76562C16.4551 5.375 10.9375 5.375 10.9375 5.375C10.9375 5.375 5.37109 5.375 3.95508 5.76562C3.22266 5.96094 2.58789 6.5957 2.39258 7.37695C2.05078 8.74414 2.05078 11.6738 2.05078 11.6738C2.05078 11.6738 2.05078 14.5547 2.39258 15.9707C2.58789 16.752 3.22266 17.3379 3.95508 17.5332C5.37109 17.875 10.9375 17.875 10.9375 17.875C10.9375 17.875 16.4551 17.875 17.8711 17.5332C18.6035 17.3379 19.2383 16.752 19.4336 15.9707C19.8242 14.5547 19.8242 11.6738 19.8242 11.6738C19.8242 11.6738 19.8242 8.74414 19.4336 7.37695Z" fill="#5C4033"/>
</svg>
