<svg width="31" height="32" viewBox="0 0 31 32" fill="none" xmlns="http://www.w3.org/2000/svg">
<path d="M19.2773 15.9434L12.7148 19.6348V12.252L19.2773 15.9434ZM26.25 0.5625C28.6426 0.5625 30.625 2.54492 30.625 4.9375V26.8125C30.625 29.2734 28.6426 31.1875 26.25 31.1875H4.375C1.91406 31.1875 0 29.2734 0 26.8125V4.9375C0 2.54492 1.91406 0.5625 4.375 0.5625H26.25ZM27.207 9.92773C26.9336 8.83398 26.0449 7.94531 25.0195 7.67188C23.0371 7.125 15.3125 7.125 15.3125 7.125C15.3125 7.125 7.51953 7.125 5.53711 7.67188C4.51172 7.94531 3.62305 8.83398 3.34961 9.92773C2.87109 11.8418 2.87109 15.9434 2.87109 15.9434C2.87109 15.9434 2.87109 19.9766 3.34961 21.959C3.62305 23.0527 4.51172 23.873 5.53711 24.1465C7.51953 24.625 15.3125 24.625 15.3125 24.625C15.3125 24.625 23.0371 24.625 25.0195 24.1465C26.0449 23.873 26.9336 23.0527 27.207 21.959C27.7539 19.9766 27.7539 15.9434 27.7539 15.9434C27.7539 15.9434 27.7539 11.8418 27.207 9.92773Z" fill="#657252"/>
</svg>
